# xmcd
#
# Track frame offsets: 
#        187
#        21750
#        40742
#        61850
#        79615
#        103900
#        123870
#        143117
#        162255
#        182867
#
# Disc length: 2747 seconds
#
# Revision: 0
# Processed by: cddbd v1.5.2PL0 Copyright (c) Steve Scherf et al.
# Submitted via: ExactAudioCopyFreeDBPlugin 1.0
#
DISCID=7c0ab90a
DTITLE=富樫明生 - HARLEM WONDER PARADE
DYEAR=1989
DGENRE=Dance
TTITLE0=Primitive Power
TTITLE1=Break Out
TTITLE2=Get and Go!
TTITLE3=Oshaberi Matsuge
TTITLE4=Just Like Pain
TTITLE5=Make Me Happy
TTITLE6=Let's A・B・C
TTITLE7=Plastic Joy
TTITLE8=Toquio Lover
TTITLE9=Harlem Wonder Parade 
EXTD=
EXTT0=
EXTT1=
EXTT2=
EXTT3=
EXTT4=
EXTT5=
EXTT6=
EXTT7=
EXTT8=
EXTT9=
PLAYORDER=
